<?xml version="1.0" encoding="UTF-8" standalone="no"?>
<!-- Created with Inkscape (http://www.inkscape.org/) -->

<svg
   xmlns:dc="http://purl.org/dc/elements/1.1/"
   xmlns:cc="http://creativecommons.org/ns#"
   xmlns:rdf="http://www.w3.org/1999/02/22-rdf-syntax-ns#"
   xmlns:svg="http://www.w3.org/2000/svg"
   xmlns="http://www.w3.org/2000/svg"
   xmlns:sodipodi="http://sodipodi.sourceforge.net/DTD/sodipodi-0.dtd"
   xmlns:inkscape="http://www.inkscape.org/namespaces/inkscape"
   width="169.33333mm"
   height="196.58078mm"
   viewBox="0 0 599.99998 696.54607"
   id="svg4710"
   version="1.1"
   inkscape:version="0.91 r13725"
   sodipodi:docname="Scroll.svg">
  <defs
     id="defs4712" />
  <sodipodi:namedview
     id="base"
     pagecolor="#ffffff"
     bordercolor="#666666"
     borderopacity="1.0"
     inkscape:pageopacity="0.0"
     inkscape:pageshadow="2"
     inkscape:zoom="0.96188899"
     inkscape:cx="299.99999"
     inkscape:cy="348.27304"
     inkscape:document-units="px"
     inkscape:current-layer="layer1"
     showgrid="false"
     fit-margin-top="0"
     fit-margin-left="0"
     fit-margin-right="0"
     fit-margin-bottom="0"
     inkscape:window-width="1600"
     inkscape:window-height="837"
     inkscape:window-x="-8"
     inkscape:window-y="-8"
     inkscape:window-maximized="1" />
  <metadata
     id="metadata4715">
    <rdf:RDF>
      <cc:Work
         rdf:about="">
        <dc:format>image/svg+xml</dc:format>
        <dc:type
           rdf:resource="http://purl.org/dc/dcmitype/StillImage" />
        <dc:title></dc:title>
      </cc:Work>
    </rdf:RDF>
  </metadata>
  <g
     inkscape:label="Layer 1"
     inkscape:groupmode="layer"
     id="layer1"
     transform="translate(-87.011127,-225.26858)">
    <g
       id="g4663"
       transform="matrix(8.8519683,0,0,8.8519683,-7138.2143,-1865.7671)">
      <path
         d="m 839.38717,296.92118 c -9.42871,-4.64111 -16.61909,-5.73002 -18.34048,5.68421 0,9.2822 2.49735,14.16059 11.62442,10.89267 4.73567,-4.59412 6.71606,-16.57688 6.71606,-16.57688 z"
         id="path3675"
         style="fill:#f2f2bf"
         inkscape:connector-curvature="0" />
      <path
         d="m 839.38717,296.92118 c -9.42871,-4.64111 -16.61909,-5.73002 -18.34048,5.68421 0,9.2822 2.49735,14.16059 11.62442,10.89267 4.73567,-4.59412 6.71606,-16.57688 6.71606,-16.57688 z"
         id="path3677"
         style="fill:none;stroke:#000000;stroke-width:0.1400387;stroke-linecap:round;stroke-linejoin:round"
         inkscape:connector-curvature="0" />
      <path
         d="m 826.51462,314.44484 c 0.0427,0 51.36229,1.79959 52.48146,-2.27298 6.41549,-11.46121 5.94118,-23.96436 2.2394,-31.87338 -6.71713,-17.99705 -14.38076,-29.41129 -14.38076,-29.41129 2.97166,-0.85163 5.42529,-8.99793 3.2296,-13.07168 -18.59949,1.89474 -42.5795,-1.37319 -42.5795,-1.37319 l -0.77489,0 c -5.16629,-0.80464 -6.67344,1.89474 -6.67344,1.89474 -4.21979,6.0143 -5.94117,13.64022 0.51696,26.94802 13.6048,24.53289 11.79601,25.81093 14.16438,30.12078 2.71159,16.62387 -2.79898,17.19241 -8.0079,19.08597 l -0.21531,-0.047"
         id="path3679"
         style="fill:#ffffcc"
         inkscape:connector-curvature="0" />
      <path
         d="m 826.51462,314.44484 c 0.0427,0 51.36229,1.79959 52.48146,-2.27298 6.41549,-11.46121 5.94118,-23.96436 2.2394,-31.87338 -6.71713,-17.99705 -14.38076,-29.41129 -14.38076,-29.41129 2.97166,-0.85163 5.42529,-8.99793 3.2296,-13.07168 -18.59949,1.89474 -42.5795,-1.37319 -42.5795,-1.37319 l -0.77489,0 c -5.16629,-0.80464 -6.67344,1.89474 -6.67344,1.89474 -4.21979,6.0143 -5.94117,13.64022 0.51696,26.94802 13.6048,24.53289 11.79601,25.81093 14.16438,30.12078 2.71159,16.62387 -2.79898,17.19241 -8.0079,19.08597 l -0.21531,-0.047"
         id="path3681"
         style="fill:none;stroke:#000000;stroke-width:0.1400387;stroke-linecap:round;stroke-linejoin:round"
         inkscape:connector-curvature="0" />
      <path
         d="m 823.93095,236.53747 c 0.47431,0 0.86122,0.18912 1.29184,0.42641 1.3771,0.89979 2.5826,2.03687 2.97058,3.74131 0.34428,1.27803 0.43061,2.55725 0.17267,3.93043 -0.38797,2.17901 -0.37018,2.51644 -1.52741,4.72541 -1.1628,2.21959 -1.685,1.59208 -1.685,1.59208"
         id="path3683"
         style="fill:none;stroke:#000000;stroke-width:0.1400387;stroke-linecap:round;stroke-linejoin:round"
         inkscape:connector-curvature="0" />
      <path
         d="m 827.24581,293.89054 c 1.85142,0.0951 2.67001,0.75766 3.40227,1.94173 0.64485,0.99494 0.90386,2.08385 1.37711,3.12578 0.81752,1.65745 0.94755,3.45704 0.68855,5.30479 -0.34428,2.4621 -0.60222,5.25663 -2.49734,6.91408 1.16287,0.23729 1.76508,-0.0469 2.45471,0.0951"
         id="path3685"
         style="fill:none;stroke:#000000;stroke-width:0.1400387;stroke-linecap:round;stroke-linejoin:round"
         inkscape:connector-curvature="0" />
      <path
         d="m 832.49843,300.04697 c -1.4208,-0.094 -4.39139,0 -5.29526,0.23727 -0.47324,0.0951 -0.77488,0.23729 -1.11916,0.61553 -0.64592,0.71067 -0.81859,1.23105 -1.07653,1.84775 -0.73226,1.6093 -0.51696,3.45704 0,5.25663 0.38797,1.27921 1.07653,2.60424 2.28203,3.12579 1.07653,0.4264 2.23834,0.61552 3.35857,0.28427"
         id="path3687"
         style="fill:none;stroke:#000000;stroke-width:0.1400387;stroke-linecap:round;stroke-linejoin:round"
         inkscape:connector-curvature="0" />
      <path
         d="m 826.98787,300.66249 c 1.33448,0.66368 1.24814,3.03181 0.94756,4.35801 1.54978,0 3.09956,0.42641 4.69197,0.37824"
         id="path3689"
         style="fill:none;stroke:#000000;stroke-width:0.1400387;stroke-linecap:round;stroke-linejoin:round"
         inkscape:connector-curvature="0" />
      <path
         d="m 826.12664,294.97945 3.57388,-0.14213"
         id="path3691"
         style="fill:none;stroke:#000000;stroke-width:0.1400387;stroke-linecap:round;stroke-linejoin:round"
         inkscape:connector-curvature="0" />
      <path
         d="m 826.68623,295.59498 3.57387,-0.14096"
         id="path3693"
         style="fill:none;stroke:#000000;stroke-width:0.1400387;stroke-linecap:round;stroke-linejoin:round"
         inkscape:connector-curvature="0" />
      <path
         d="m 827.28951,296.21168 3.61651,-0.14214"
         id="path3695"
         style="fill:none;stroke:#000000;stroke-width:0.1400387;stroke-linecap:round;stroke-linejoin:round"
         inkscape:connector-curvature="0" />
      <path
         d="m 827.67642,297.15846 3.57388,-0.14214"
         id="path3697"
         style="fill:none;stroke:#000000;stroke-width:0.1400387;stroke-linecap:round;stroke-linejoin:round"
         inkscape:connector-curvature="0" />
      <path
         d="m 828.0644,297.86914 3.57281,-0.14214"
         id="path3699"
         style="fill:none;stroke:#000000;stroke-width:0.1400387;stroke-linecap:round;stroke-linejoin:round"
         inkscape:connector-curvature="0" />
      <path
         d="m 828.27971,298.67378 3.6165,-0.14214"
         id="path3701"
         style="fill:none;stroke:#000000;stroke-width:0.1400387;stroke-linecap:round;stroke-linejoin:round"
         inkscape:connector-curvature="0" />
      <path
         d="m 828.58135,299.43144 3.61651,-0.14214"
         id="path3703"
         style="fill:none;stroke:#000000;stroke-width:0.1400387;stroke-linecap:round;stroke-linejoin:round"
         inkscape:connector-curvature="0" />
      <path
         d="m 825.22279,251.02933 c 0.064,0.0121 0.12745,0.0244 0.19001,0.0372 -1.53385,-0.31243 -3.56376,-0.38507 -4.23713,-2.31016 -0.25795,-0.66368 -0.51696,-1.37318 -0.55959,-2.13083 -0.12897,-2.03687 0.38691,-4.07374 1.29184,-5.87334 1.85142,-1.75143 4.43403,-0.75765 6.41443,0.18913"
         id="path3705"
         style="fill:none;stroke:#000000;stroke-width:0.1400387;stroke-linecap:round;stroke-linejoin:round"
         inkscape:connector-curvature="0" />
      <path
         d="m 822.94075,240.37394 c 0.47432,-0.14214 0.9902,-0.42641 1.37817,-0.0481 0.34428,0.33243 0.73226,0.66369 0.81753,1.18407 0.21531,1.61046 0.12897,3.22093 -0.73119,4.54713 1.11916,0.56854 2.32467,0.61552 3.48647,0.47339"
         id="path3707"
         style="fill:none;stroke:#000000;stroke-width:0.1400387;stroke-linecap:round;stroke-linejoin:round"
         inkscape:connector-curvature="0" />
      <path
         d="m 825.53199,251.07821 c 20.32087,-2.17783 40.93582,-0.0488 40.93582,-0.0488"
         id="path3709"
         style="fill:none;stroke:#000000;stroke-width:0.1400387;stroke-linecap:round;stroke-linejoin:round"
         inkscape:connector-curvature="0" />
    </g>
  </g>
</svg>
